<?xml version="1.0" encoding="utf-8" standalone="no"?>
<!DOCTYPE svg PUBLIC "-//W3C//DTD SVG 1.1//EN"
  "http://www.w3.org/Graphics/SVG/1.1/DTD/svg11.dtd">
<svg xmlns:xlink="http://www.w3.org/1999/xlink" width="151.650781pt" height="145.747656pt" viewBox="0 0 151.650781 145.747656" xmlns="http://www.w3.org/2000/svg" version="1.1">
 <metadata>
  <rdf:RDF xmlns:dc="http://purl.org/dc/elements/1.1/" xmlns:cc="http://creativecommons.org/ns#" xmlns:rdf="http://www.w3.org/1999/02/22-rdf-syntax-ns#">
   <cc:Work>
    <dc:type rdf:resource="http://purl.org/dc/dcmitype/StillImage"/>
    <dc:date>2024-07-27T15:33:41.491759</dc:date>
    <dc:format>image/svg+xml</dc:format>
    <dc:creator>
     <cc:Agent>
      <dc:title>Matplotlib v3.9.1, https://matplotlib.org/</dc:title>
     </cc:Agent>
    </dc:creator>
   </cc:Work>
  </rdf:RDF>
 </metadata>
 <defs>
  <style type="text/css">*{stroke-linejoin: round; stroke-linecap: butt}</style>
 </defs>
 <g id="figure_1">
  <g id="patch_1">
   <path d="M 0 145.747656 
L 151.650781 145.747656 
L 151.650781 0 
L 0 0 
L 0 145.747656 
z
" style="fill: none"/>
  </g>
  <g id="axes_1">
   <g id="patch_2">
    <path d="M 33.750781 100.297656 
C 38.524437 100.297656 43.103219 98.401063 46.478703 95.025578 
C 49.854188 91.650094 51.750781 87.071312 51.750781 82.297656 
C 51.750781 77.524 49.854188 72.945219 46.478703 69.569734 
C 43.103219 66.19425 38.524437 64.297656 33.750781 64.297656 
C 28.977125 64.297656 24.398344 66.19425 21.022859 69.569734 
C 17.647375 72.945219 15.750781 77.524 15.750781 82.297656 
C 15.750781 87.071312 17.647375 91.650094 21.022859 95.025578 
C 24.398344 98.401063 28.977125 100.297656 33.750781 100.297656 
L 33.750781 100.297656 
z
" clip-path="url(#p888caaf48e)" style="fill: none; stroke: #000000; stroke-width: 2; stroke-linejoin: miter"/>
   </g>
   <g id="line2d_1">
    <path d="M 33.750781 136.297656 
L 33.750781 100.297656 
L 33.750781 100.297656 
M 33.750781 64.297656 
L 33.750781 64.297656 
L 33.750781 28.297656 
" clip-path="url(#p888caaf48e)" style="fill: none; stroke: #000000; stroke-width: 2; stroke-linecap: round"/>
   </g>
   <g id="line2d_2">
    <path d="M 37.350781 91.297656 
L 30.150781 91.297656 
" clip-path="url(#p888caaf48e)" style="fill: none; stroke: #000000; stroke-width: 2; stroke-linecap: round"/>
   </g>
   <g id="line2d_3">
    <path d="M 33.750781 76.897656 
L 33.750781 69.697656 
" clip-path="url(#p888caaf48e)" style="fill: none; stroke: #000000; stroke-width: 2; stroke-linecap: round"/>
   </g>
   <g id="line2d_4">
    <path d="M 37.350781 73.297656 
L 30.150781 73.297656 
" clip-path="url(#p888caaf48e)" style="fill: none; stroke: #000000; stroke-width: 2; stroke-linecap: round"/>
   </g>
   <g id="line2d_5">
    <path d="M 33.750781 28.297656 
L 69.750781 28.297656 
L 72.750781 19.297656 
L 78.750781 37.297656 
L 84.750781 19.297656 
L 90.750781 37.297656 
L 96.750781 19.297656 
L 102.750781 37.297656 
L 105.750781 28.297656 
L 141.750781 28.297656 
" clip-path="url(#p888caaf48e)" style="fill: none; stroke: #000000; stroke-width: 2; stroke-linecap: round"/>
   </g>
   <g id="line2d_6">
    <path d="M 33.750781 28.297656 
L 87.750781 28.297656 
L 141.750781 28.297656 
" clip-path="url(#p888caaf48e)" style="fill: none; stroke: #000000; stroke-width: 2; stroke-linecap: round"/>
   </g>
   <g id="line2d_7">
    <path d="M 141.750781 28.297656 
L 141.750781 82.297656 
L 141.750781 136.297656 
" clip-path="url(#p888caaf48e)" style="fill: none; stroke: #000000; stroke-width: 2; stroke-linecap: round"/>
   </g>
   <g id="line2d_8">
    <path d="M 141.750781 136.297656 
L 87.750781 136.297656 
L 33.750781 136.297656 
" clip-path="url(#p888caaf48e)" style="fill: none; stroke: #000000; stroke-width: 2; stroke-linecap: round"/>
   </g>
   <g id="line2d_9">
    <path d="M 141.750781 136.297656 
L 141.750781 82.297656 
L 141.750781 28.297656 
" clip-path="url(#p888caaf48e)" style="fill: none; stroke: #000000; stroke-width: 2; stroke-linecap: round"/>
   </g>
   <g id="text_1">
    <!-- V -->
    <g transform="translate(3.6 85.746875) scale(0.125 -0.125)">
     <defs>
      <path id="DejaVuSans-56" d="M 1831 0 
L 50 4666 
L 709 4666 
L 2188 738 
L 3669 4666 
L 4325 4666 
L 2547 0 
L 1831 0 
z
" transform="scale(0.015625)"/>
     </defs>
     <use xlink:href="#DejaVuSans-56"/>
    </g>
   </g>
   <g id="text_2">
    <!-- R -->
    <g transform="translate(83.408008 13.098047) scale(0.125 -0.125)">
     <defs>
      <path id="DejaVuSans-52" d="M 2841 2188 
Q 3044 2119 3236 1894 
Q 3428 1669 3622 1275 
L 4263 0 
L 3584 0 
L 2988 1197 
Q 2756 1666 2539 1819 
Q 2322 1972 1947 1972 
L 1259 1972 
L 1259 0 
L 628 0 
L 628 4666 
L 2053 4666 
Q 2853 4666 3247 4331 
Q 3641 3997 3641 3322 
Q 3641 2881 3436 2590 
Q 3231 2300 2841 2188 
z
M 1259 4147 
L 1259 2491 
L 2053 2491 
Q 2509 2491 2742 2702 
Q 2975 2913 2975 3322 
Q 2975 3731 2742 3939 
Q 2509 4147 2053 4147 
L 1259 4147 
z
" transform="scale(0.015625)"/>
     </defs>
     <use xlink:href="#DejaVuSans-52"/>
    </g>
   </g>
  </g>
 </g>
 <defs>
  <clipPath id="p888caaf48e">
   <rect x="9.450781" y="13.447656" width="138.6" height="128.7"/>
  </clipPath>
 </defs>
</svg>
