<?xml version="1.0" encoding="utf-8" standalone="no"?>
<!DOCTYPE svg PUBLIC "-//W3C//DTD SVG 1.1//EN"
  "http://www.w3.org/Graphics/SVG/1.1/DTD/svg11.dtd">
<svg xmlns:xlink="http://www.w3.org/1999/xlink" width="181.88125pt" height="145.747656pt" viewBox="0 0 181.88125 145.747656" xmlns="http://www.w3.org/2000/svg" version="1.1">
 <metadata>
  <rdf:RDF xmlns:dc="http://purl.org/dc/elements/1.1/" xmlns:cc="http://creativecommons.org/ns#" xmlns:rdf="http://www.w3.org/1999/02/22-rdf-syntax-ns#">
   <cc:Work>
    <dc:type rdf:resource="http://purl.org/dc/dcmitype/StillImage"/>
    <dc:date>2024-07-27T16:11:23.672204</dc:date>
    <dc:format>image/svg+xml</dc:format>
    <dc:creator>
     <cc:Agent>
      <dc:title>Matplotlib v3.9.1, https://matplotlib.org/</dc:title>
     </cc:Agent>
    </dc:creator>
   </cc:Work>
  </rdf:RDF>
 </metadata>
 <defs>
  <style type="text/css">*{stroke-linejoin: round; stroke-linecap: butt}</style>
 </defs>
 <g id="figure_1">
  <g id="patch_1">
   <path d="M 0 145.747656 
L 181.88125 145.747656 
L 181.88125 0 
L 0 0 
L 0 145.747656 
z
" style="fill: none"/>
  </g>
  <g id="axes_1">
   <g id="patch_2">
    <path d="M 63.98125 100.297656 
C 68.754906 100.297656 73.333688 98.401063 76.709172 95.025578 
C 80.084656 91.650094 81.98125 87.071312 81.98125 82.297656 
C 81.98125 77.524 80.084656 72.945219 76.709172 69.569734 
C 73.333688 66.19425 68.754906 64.297656 63.98125 64.297656 
C 59.207594 64.297656 54.628812 66.19425 51.253328 69.569734 
C 47.877844 72.945219 45.98125 77.524 45.98125 82.297656 
C 45.98125 87.071312 47.877844 91.650094 51.253328 95.025578 
C 54.628812 98.401063 59.207594 100.297656 63.98125 100.297656 
L 63.98125 100.297656 
z
" clip-path="url(#p1b253ad32e)" style="fill: none; stroke: #000000; stroke-width: 2; stroke-linejoin: miter"/>
   </g>
   <g id="line2d_1">
    <path d="M 63.98125 136.297656 
L 63.98125 100.297656 
L 63.98125 100.297656 
M 63.98125 64.297656 
L 63.98125 64.297656 
L 63.98125 28.297656 
" clip-path="url(#p1b253ad32e)" style="fill: none; stroke: #000000; stroke-width: 2; stroke-linecap: round"/>
   </g>
   <g id="line2d_2">
    <path d="M 67.58125 91.297656 
L 60.38125 91.297656 
" clip-path="url(#p1b253ad32e)" style="fill: none; stroke: #000000; stroke-width: 2; stroke-linecap: round"/>
   </g>
   <g id="line2d_3">
    <path d="M 63.98125 76.897656 
L 63.98125 69.697656 
" clip-path="url(#p1b253ad32e)" style="fill: none; stroke: #000000; stroke-width: 2; stroke-linecap: round"/>
   </g>
   <g id="line2d_4">
    <path d="M 67.58125 73.297656 
L 60.38125 73.297656 
" clip-path="url(#p1b253ad32e)" style="fill: none; stroke: #000000; stroke-width: 2; stroke-linecap: round"/>
   </g>
   <g id="line2d_5">
    <path d="M 63.98125 28.297656 
L 99.98125 28.297656 
L 102.98125 19.297656 
L 108.98125 37.297656 
L 114.98125 19.297656 
L 120.98125 37.297656 
L 126.98125 19.297656 
L 132.98125 37.297656 
L 135.98125 28.297656 
L 171.98125 28.297656 
" clip-path="url(#p1b253ad32e)" style="fill: none; stroke: #000000; stroke-width: 2; stroke-linecap: round"/>
   </g>
   <g id="line2d_6">
    <path d="M 171.98125 28.297656 
L 171.98125 82.297656 
L 171.98125 136.297656 
" clip-path="url(#p1b253ad32e)" style="fill: none; stroke: #000000; stroke-width: 2; stroke-linecap: round"/>
   </g>
   <g id="line2d_7">
    <path d="M 171.98125 136.297656 
L 117.98125 136.297656 
L 63.98125 136.297656 
" clip-path="url(#p1b253ad32e)" style="fill: none; stroke: #000000; stroke-width: 2; stroke-linecap: round"/>
   </g>
   <g id="text_1">
    <!-- V1 (V) -->
    <g transform="translate(3.6 85.746875) scale(0.125 -0.125)">
     <defs>
      <path id="DejaVuSans-56" d="M 1831 0 
L 50 4666 
L 709 4666 
L 2188 738 
L 3669 4666 
L 4325 4666 
L 2547 0 
L 1831 0 
z
" transform="scale(0.015625)"/>
      <path id="DejaVuSans-31" d="M 794 531 
L 1825 531 
L 1825 4091 
L 703 3866 
L 703 4441 
L 1819 4666 
L 2450 4666 
L 2450 531 
L 3481 531 
L 3481 0 
L 794 0 
L 794 531 
z
" transform="scale(0.015625)"/>
      <path id="DejaVuSans-20" transform="scale(0.015625)"/>
      <path id="DejaVuSans-28" d="M 1984 4856 
Q 1566 4138 1362 3434 
Q 1159 2731 1159 2009 
Q 1159 1288 1364 580 
Q 1569 -128 1984 -844 
L 1484 -844 
Q 1016 -109 783 600 
Q 550 1309 550 2009 
Q 550 2706 781 3412 
Q 1013 4119 1484 4856 
L 1984 4856 
z
" transform="scale(0.015625)"/>
      <path id="DejaVuSans-29" d="M 513 4856 
L 1013 4856 
Q 1481 4119 1714 3412 
Q 1947 2706 1947 2009 
Q 1947 1309 1714 600 
Q 1481 -109 1013 -844 
L 513 -844 
Q 928 -128 1133 580 
Q 1338 1288 1338 2009 
Q 1338 2731 1133 3434 
Q 928 4138 513 4856 
z
" transform="scale(0.015625)"/>
     </defs>
     <use xlink:href="#DejaVuSans-56"/>
     <use xlink:href="#DejaVuSans-31" x="68.408203"/>
     <use xlink:href="#DejaVuSans-20" x="132.03125"/>
     <use xlink:href="#DejaVuSans-28" x="163.818359"/>
     <use xlink:href="#DejaVuSans-56" x="202.832031"/>
     <use xlink:href="#DejaVuSans-29" x="271.240234"/>
    </g>
   </g>
   <g id="text_2">
    <!-- R1 (Ω) -->
    <g transform="translate(98.022266 13.098047) scale(0.125 -0.125)">
     <defs>
      <path id="DejaVuSans-52" d="M 2841 2188 
Q 3044 2119 3236 1894 
Q 3428 1669 3622 1275 
L 4263 0 
L 3584 0 
L 2988 1197 
Q 2756 1666 2539 1819 
Q 2322 1972 1947 1972 
L 1259 1972 
L 1259 0 
L 628 0 
L 628 4666 
L 2053 4666 
Q 2853 4666 3247 4331 
Q 3641 3997 3641 3322 
Q 3641 2881 3436 2590 
Q 3231 2300 2841 2188 
z
M 1259 4147 
L 1259 2491 
L 2053 2491 
Q 2509 2491 2742 2702 
Q 2975 2913 2975 3322 
Q 2975 3731 2742 3939 
Q 2509 4147 2053 4147 
L 1259 4147 
z
" transform="scale(0.015625)"/>
      <path id="DejaVuSans-3a9" d="M 4647 556 
L 4647 0 
L 2772 0 
L 2772 556 
Q 3325 859 3634 1378 
Q 3944 1897 3944 2528 
Q 3944 3278 3531 3731 
Q 3119 4184 2444 4184 
Q 1769 4184 1355 3729 
Q 941 3275 941 2528 
Q 941 1897 1250 1378 
Q 1563 859 2119 556 
L 2119 0 
L 244 0 
L 244 556 
L 1241 556 
Q 747 991 519 1456 
Q 294 1922 294 2497 
Q 294 3491 894 4106 
Q 1491 4722 2444 4722 
Q 3391 4722 3994 4106 
Q 4594 3494 4594 2528 
Q 4594 1922 4372 1459 
Q 4150 997 3647 556 
L 4647 556 
z
" transform="scale(0.015625)"/>
     </defs>
     <use xlink:href="#DejaVuSans-52"/>
     <use xlink:href="#DejaVuSans-31" x="69.482422"/>
     <use xlink:href="#DejaVuSans-20" x="133.105469"/>
     <use xlink:href="#DejaVuSans-28" x="164.892578"/>
     <use xlink:href="#DejaVuSans-3a9" x="203.90625"/>
     <use xlink:href="#DejaVuSans-29" x="280.322266"/>
    </g>
   </g>
  </g>
 </g>
 <defs>
  <clipPath id="p1b253ad32e">
   <rect x="39.68125" y="13.447656" width="138.6" height="128.7"/>
  </clipPath>
 </defs>
</svg>
